<?xml version="1.0" encoding="utf-8" ?>
<svg xmlns="http://www.w3.org/2000/svg" viewBox="0 0 24 24" xml:space="preserve">
  <symbol id="link" viewBox="0 0 512 512">
    <path d="M509.681 102.798c-4.641-24-16.344-47.141-34.875-65.578-12.344-12.36-26.719-21.719-42.016-27.922-22.984-9.297-48.047-11.609-72.047-7-23.953 4.641-47.047 16.391-65.578 34.922l-98.578 98.594c-.516.484-.984 1-1.438 1.531.172-.031.328-.094.5-.094 28.969-5.797 58.734-3.094 86.125 7.828.141.031.297.125.438.172l60.516-60.516c5.906-5.891 12.578-10.203 19.781-13.109 10.719-4.375 22.609-5.484 33.922-3.266 11.359 2.188 21.984 7.594 30.813 16.375 5.906 5.906 10.234 12.578 13.156 19.766 4.375 10.719 5.469 22.625 3.266 33.953-2.219 11.344-7.594 21.969-16.422 30.797l-98.609 98.625c-5.891 5.906-12.547 10.234-19.734 13.156-10.75 4.359-22.672 5.438-33.984 3.266-11.297-2.219-21.953-7.594-30.813-16.422-4.766-4.797-8.484-10.078-11.297-15.75-.281-.063-.578-.156-.875-.203-6.578-1.234-13.625-.547-19.797 2.031a35.1 35.1 0 0 0-11.484 7.734l-1.922 1.953c-10 12.125-17.875 29.266-2.109 51.828 12.328 12.297 26.672 21.656 42 27.859 22.984 9.328 47.984 11.609 71.984 6.969 23.969-4.609 47.063-16.328 65.594-34.891l98.609-98.594c12.313-12.328 21.688-26.719 27.891-42.047 9.311-22.952 11.608-47.983 6.983-71.967"/>
    <path d="M230.259 366.907c-.188-.094-.313-.125-.469-.188l-60.516 60.531c-5.891 5.906-12.563 10.203-19.734 13.156-10.75 4.375-22.641 5.438-33.953 3.266-11.328-2.219-21.984-7.594-30.813-16.422-5.906-5.922-10.219-12.563-13.156-19.766-4.359-10.719-5.453-22.609-3.25-33.953 2.188-11.328 7.578-21.953 16.406-30.797l98.625-98.641a59.05 59.05 0 0 1 19.734-13.109c10.734-4.406 22.609-5.469 33.969-3.297 11.313 2.234 21.953 7.594 30.781 16.406 4.797 4.781 8.516 10.109 11.344 15.781.266.078.563.141.859.219 6.594 1.203 13.641.484 19.766-2.047 4.313-1.797 8.172-4.406 11.516-7.781l1.922-1.922c10-12.109 17.844-29.281 2.109-51.828a126.7 126.7 0 0 0-41.984-27.859c-23-9.297-48-11.609-72.031-6.984-23.969 4.625-47.047 16.391-65.594 34.906l-98.578 98.625a125.3 125.3 0 0 0-27.891 42.031c-9.328 22.953-11.641 47.984-6.984 71.953a126.6 126.6 0 0 0 34.875 65.594 126.75 126.75 0 0 0 42.031 27.938c22.984 9.313 48 11.594 72 6.953a126.1 126.1 0 0 0 65.578-34.891l98.609-98.641c.516-.453.984-1 1.453-1.453-.156 0-.344.063-.5.063-28.984 5.767-58.749 3.079-86.124-7.843"/>
  </symbol>
  <symbol id="check" viewBox="0 0 32 32">
    <path d="M16 2.672C8.639 2.672 2.672 8.639 2.672 16S8.64 29.328 16 29.328c7.361 0 13.328-5.967 13.328-13.328S23.361 2.672 16 2.672m0 25.59C9.239 28.262 3.738 22.761 3.738 16S9.238 3.738 16 3.738c6.761 0 12.262 5.501 12.262 12.262S22.762 28.262 16 28.262"/>
    <path d="m22.667 11.241-8.559 8.299-2.998-2.998a.8.8 0 0 0-1.131 1.131l3.555 3.555a.797.797 0 0 0 1.121.009l9.124-8.848a.8.8 0 0 0-1.113-1.149z"/>
  </symbol>
</svg>
